# xmcd CD database file
#
# Track frame offsets:
#	150
#	3199
#	5261
#	29963
#	85175
#	90893
#	93091
#	98511
#	128235
#	133845
#	152985
#	193087
#	207342
#	224010
#	227797
#	252625
#	256184
#	309322
#	314633
#
# Disc length: 4412 seconds
#
# Revision: 0
# Processed by: cddbd v1.5.1PL0 Copyright (c) Steve Scherf et al.
# Submitted via: CDex 1.51
#
DISCID=01113a13
DTITLE=Flat Earth Society - Larf
DYEAR=2001
DGENRE=Jazz
TTITLE0=Spreker
TTITLE1=Larfken
TTITLE2=Zonk
TTITLE3=Weersomstandigheden - Cocksandtails
TTITLE4=Spreker
TTITLE5=Ik
TTITLE6=Woordjes
TTITLE7=Ikkeikke
TTITLE8=Spreker
TTITLE9=Monsieur Poladian
TTITLE10=Driekoningen
TTITLE11=J&J Libbera (intro)
TTITLE12=J&J Libbera
TTITLE13=Aap
TTITLE14=Marche des Lames
TTITLE15=Woordjes
TTITLE16=Damesenheren - The Arm but Happy
TTITLE17=Neenee
TTITLE18=Don't worry about a thing
EXTD=YEAR: 2001
EXTT0=
EXTT1=
EXTT2=
EXTT3=
EXTT4=
EXTT5=
EXTT6=
EXTT7=
EXTT8=
EXTT9=
EXTT10=
EXTT11=
EXTT12=
EXTT13=
EXTT14=
EXTT15=
EXTT16=
EXTT17=
EXTT18=
PLAYORDER=
